<mxfile host="app.diagrams.net" modified="2023-03-20T06:16:52.253Z" agent="5.0 (Windows NT 10.0; Win64; x64) AppleWebKit/537.36 (KHTML, like Gecko) Chrome/111.0.0.0 Safari/537.36" etag="daTZDG1PhMfqhh2W3V3N" version="21.0.6" type="github">
  <diagram id="R2lEEEUBdFMjLlhIrx00" name="Page-1">
    <mxGraphModel dx="1434" dy="768" grid="1" gridSize="10" guides="1" tooltips="1" connect="1" arrows="1" fold="1" page="1" pageScale="1" pageWidth="850" pageHeight="1100" math="0" shadow="0" extFonts="Permanent Marker^https://fonts.googleapis.com/css?family=Permanent+Marker">
      <root>
        <mxCell id="0" />
        <mxCell id="1" parent="0" />
        <mxCell id="8nnuFxif18P1OOKrdfIk-3" value="" style="endArrow=none;html=1;rounded=0;startArrow=none;" edge="1" parent="1" source="8nnuFxif18P1OOKrdfIk-2" target="8nnuFxif18P1OOKrdfIk-4">
          <mxGeometry width="50" height="50" relative="1" as="geometry">
            <mxPoint x="220" y="300" as="sourcePoint" />
            <mxPoint x="190" y="260" as="targetPoint" />
          </mxGeometry>
        </mxCell>
        <mxCell id="8nnuFxif18P1OOKrdfIk-4" value="CRN" style="ellipse;whiteSpace=wrap;html=1;fontStyle=4" vertex="1" parent="1">
          <mxGeometry x="100" y="210" width="70" height="40" as="geometry" />
        </mxCell>
        <mxCell id="8nnuFxif18P1OOKrdfIk-5" value="" style="endArrow=none;html=1;rounded=0;" edge="1" parent="1" target="8nnuFxif18P1OOKrdfIk-2">
          <mxGeometry width="50" height="50" relative="1" as="geometry">
            <mxPoint x="220" y="300" as="sourcePoint" />
            <mxPoint x="155" y="246" as="targetPoint" />
          </mxGeometry>
        </mxCell>
        <mxCell id="8nnuFxif18P1OOKrdfIk-2" value="&lt;font style=&quot;font-size: 18px;&quot;&gt;course&lt;/font&gt;" style="rounded=0;whiteSpace=wrap;html=1;" vertex="1" parent="1">
          <mxGeometry x="190" y="290" width="70" height="40" as="geometry" />
        </mxCell>
        <mxCell id="8nnuFxif18P1OOKrdfIk-6" value="" style="endArrow=none;html=1;rounded=0;exitX=0.25;exitY=0;exitDx=0;exitDy=0;" edge="1" parent="1" source="8nnuFxif18P1OOKrdfIk-2" target="8nnuFxif18P1OOKrdfIk-7">
          <mxGeometry width="50" height="50" relative="1" as="geometry">
            <mxPoint x="400" y="420" as="sourcePoint" />
            <mxPoint x="230" y="220" as="targetPoint" />
          </mxGeometry>
        </mxCell>
        <mxCell id="8nnuFxif18P1OOKrdfIk-7" value="title" style="ellipse;whiteSpace=wrap;html=1;" vertex="1" parent="1">
          <mxGeometry x="180" y="180" width="70" height="40" as="geometry" />
        </mxCell>
        <mxCell id="8nnuFxif18P1OOKrdfIk-8" value="&lt;font style=&quot;font-size: 18px;&quot;&gt;link&lt;/font&gt;" style="rhombus;whiteSpace=wrap;html=1;" vertex="1" parent="1">
          <mxGeometry x="300" y="270" width="80" height="80" as="geometry" />
        </mxCell>
        <mxCell id="8nnuFxif18P1OOKrdfIk-9" value="" style="endArrow=none;html=1;rounded=0;exitX=1;exitY=0.5;exitDx=0;exitDy=0;entryX=0;entryY=0.5;entryDx=0;entryDy=0;" edge="1" parent="1" source="8nnuFxif18P1OOKrdfIk-2" target="8nnuFxif18P1OOKrdfIk-8">
          <mxGeometry width="50" height="50" relative="1" as="geometry">
            <mxPoint x="400" y="420" as="sourcePoint" />
            <mxPoint x="450" y="370" as="targetPoint" />
          </mxGeometry>
        </mxCell>
        <mxCell id="8nnuFxif18P1OOKrdfIk-10" value="" style="endArrow=none;html=1;rounded=0;entryX=1;entryY=0.5;entryDx=0;entryDy=0;exitX=0;exitY=0.5;exitDx=0;exitDy=0;" edge="1" parent="1" source="8nnuFxif18P1OOKrdfIk-11" target="8nnuFxif18P1OOKrdfIk-8">
          <mxGeometry width="50" height="50" relative="1" as="geometry">
            <mxPoint x="450" y="310" as="sourcePoint" />
            <mxPoint x="450" y="370" as="targetPoint" />
          </mxGeometry>
        </mxCell>
        <mxCell id="8nnuFxif18P1OOKrdfIk-11" value="&lt;font style=&quot;font-size: 18px;&quot;&gt;people&lt;/font&gt;" style="rounded=0;whiteSpace=wrap;html=1;" vertex="1" parent="1">
          <mxGeometry x="440" y="292.5" width="70" height="35" as="geometry" />
        </mxCell>
        <mxCell id="8nnuFxif18P1OOKrdfIk-13" value="department" style="rounded=0;whiteSpace=wrap;html=1;" vertex="1" parent="1">
          <mxGeometry x="295" y="390" width="90" height="40" as="geometry" />
        </mxCell>
        <mxCell id="8nnuFxif18P1OOKrdfIk-17" value="" style="endArrow=none;html=1;rounded=0;entryX=0.5;entryY=0;entryDx=0;entryDy=0;exitX=0.5;exitY=1;exitDx=0;exitDy=0;" edge="1" parent="1" source="8nnuFxif18P1OOKrdfIk-8" target="8nnuFxif18P1OOKrdfIk-13">
          <mxGeometry width="50" height="50" relative="1" as="geometry">
            <mxPoint x="340" y="470" as="sourcePoint" />
            <mxPoint x="390" y="420" as="targetPoint" />
          </mxGeometry>
        </mxCell>
        <mxCell id="8nnuFxif18P1OOKrdfIk-18" value="" style="endArrow=none;html=1;rounded=0;exitX=0.25;exitY=0;exitDx=0;exitDy=0;" edge="1" parent="1" target="8nnuFxif18P1OOKrdfIk-19" source="8nnuFxif18P1OOKrdfIk-11">
          <mxGeometry width="50" height="50" relative="1" as="geometry">
            <mxPoint x="500" y="280" as="sourcePoint" />
            <mxPoint x="470" y="222.5" as="targetPoint" />
          </mxGeometry>
        </mxCell>
        <mxCell id="8nnuFxif18P1OOKrdfIk-19" value="age" style="ellipse;whiteSpace=wrap;html=1;" vertex="1" parent="1">
          <mxGeometry x="450" y="150" width="70" height="40" as="geometry" />
        </mxCell>
        <mxCell id="8nnuFxif18P1OOKrdfIk-20" value="" style="endArrow=none;html=1;rounded=0;exitX=0.5;exitY=0;exitDx=0;exitDy=0;" edge="1" parent="1" target="8nnuFxif18P1OOKrdfIk-21" source="8nnuFxif18P1OOKrdfIk-11">
          <mxGeometry width="50" height="50" relative="1" as="geometry">
            <mxPoint x="558" y="270" as="sourcePoint" />
            <mxPoint x="570" y="199.5" as="targetPoint" />
          </mxGeometry>
        </mxCell>
        <mxCell id="8nnuFxif18P1OOKrdfIk-21" value="name" style="ellipse;whiteSpace=wrap;html=1;" vertex="1" parent="1">
          <mxGeometry x="520" y="159.5" width="70" height="40" as="geometry" />
        </mxCell>
        <mxCell id="8nnuFxif18P1OOKrdfIk-22" value="" style="endArrow=none;html=1;rounded=0;exitX=0.75;exitY=0;exitDx=0;exitDy=0;" edge="1" parent="1" target="8nnuFxif18P1OOKrdfIk-23" source="8nnuFxif18P1OOKrdfIk-11">
          <mxGeometry width="50" height="50" relative="1" as="geometry">
            <mxPoint x="638" y="300.5" as="sourcePoint" />
            <mxPoint x="650" y="230" as="targetPoint" />
          </mxGeometry>
        </mxCell>
        <mxCell id="8nnuFxif18P1OOKrdfIk-23" value="SSN" style="ellipse;whiteSpace=wrap;html=1;fontStyle=4" vertex="1" parent="1">
          <mxGeometry x="600" y="190" width="70" height="40" as="geometry" />
        </mxCell>
        <mxCell id="8nnuFxif18P1OOKrdfIk-24" value="ID" style="ellipse;whiteSpace=wrap;html=1;fontStyle=4" vertex="1" parent="1">
          <mxGeometry x="250" y="500" width="70" height="40" as="geometry" />
        </mxCell>
        <mxCell id="8nnuFxif18P1OOKrdfIk-25" value="" style="endArrow=none;html=1;rounded=0;exitX=0.5;exitY=0;exitDx=0;exitDy=0;entryX=0.25;entryY=1;entryDx=0;entryDy=0;" edge="1" parent="1" source="8nnuFxif18P1OOKrdfIk-24" target="8nnuFxif18P1OOKrdfIk-13">
          <mxGeometry width="50" height="50" relative="1" as="geometry">
            <mxPoint x="340" y="470" as="sourcePoint" />
            <mxPoint x="445" y="500" as="targetPoint" />
          </mxGeometry>
        </mxCell>
        <mxCell id="8nnuFxif18P1OOKrdfIk-26" value="name" style="ellipse;whiteSpace=wrap;html=1;" vertex="1" parent="1">
          <mxGeometry x="370" y="490" width="70" height="40" as="geometry" />
        </mxCell>
        <mxCell id="8nnuFxif18P1OOKrdfIk-27" value="" style="endArrow=none;html=1;rounded=0;entryX=0.75;entryY=1;entryDx=0;entryDy=0;exitX=0.5;exitY=0;exitDx=0;exitDy=0;" edge="1" parent="1" source="8nnuFxif18P1OOKrdfIk-26" target="8nnuFxif18P1OOKrdfIk-13">
          <mxGeometry width="50" height="50" relative="1" as="geometry">
            <mxPoint x="340" y="470" as="sourcePoint" />
            <mxPoint x="390" y="420" as="targetPoint" />
          </mxGeometry>
        </mxCell>
        <mxCell id="8nnuFxif18P1OOKrdfIk-28" value="" style="endArrow=none;html=1;rounded=0;entryX=0.5;entryY=0;entryDx=0;entryDy=0;exitX=0.5;exitY=1;exitDx=0;exitDy=0;" edge="1" parent="1" source="8nnuFxif18P1OOKrdfIk-29" target="8nnuFxif18P1OOKrdfIk-8">
          <mxGeometry width="50" height="50" relative="1" as="geometry">
            <mxPoint x="290" y="230" as="sourcePoint" />
            <mxPoint x="390" y="420" as="targetPoint" />
          </mxGeometry>
        </mxCell>
        <mxCell id="8nnuFxif18P1OOKrdfIk-29" value="course CRN" style="ellipse;whiteSpace=wrap;html=1;" vertex="1" parent="1">
          <mxGeometry x="200" y="110" width="70" height="40" as="geometry" />
        </mxCell>
        <mxCell id="8nnuFxif18P1OOKrdfIk-31" value="" style="endArrow=none;html=1;rounded=0;entryX=0.5;entryY=0;entryDx=0;entryDy=0;exitX=0.5;exitY=1;exitDx=0;exitDy=0;" edge="1" parent="1" source="8nnuFxif18P1OOKrdfIk-32" target="8nnuFxif18P1OOKrdfIk-8">
          <mxGeometry width="50" height="50" relative="1" as="geometry">
            <mxPoint x="390" y="219.5" as="sourcePoint" />
            <mxPoint x="440" y="259.5" as="targetPoint" />
          </mxGeometry>
        </mxCell>
        <mxCell id="8nnuFxif18P1OOKrdfIk-32" value="person SSN" style="ellipse;whiteSpace=wrap;html=1;" vertex="1" parent="1">
          <mxGeometry x="270" y="80" width="70" height="40" as="geometry" />
        </mxCell>
        <mxCell id="8nnuFxif18P1OOKrdfIk-34" value="" style="endArrow=none;html=1;rounded=0;exitX=1;exitY=0.5;exitDx=0;exitDy=0;" edge="1" parent="1" target="8nnuFxif18P1OOKrdfIk-35" source="8nnuFxif18P1OOKrdfIk-11">
          <mxGeometry width="50" height="50" relative="1" as="geometry">
            <mxPoint x="668" y="381.5" as="sourcePoint" />
            <mxPoint x="680" y="311" as="targetPoint" />
          </mxGeometry>
        </mxCell>
        <mxCell id="8nnuFxif18P1OOKrdfIk-35" value="is_teacher" style="ellipse;whiteSpace=wrap;html=1;" vertex="1" parent="1">
          <mxGeometry x="630" y="238.5" width="70" height="40" as="geometry" />
        </mxCell>
        <mxCell id="8nnuFxif18P1OOKrdfIk-38" value="" style="endArrow=none;html=1;rounded=0;entryX=0.5;entryY=0;entryDx=0;entryDy=0;exitX=0.5;exitY=1;exitDx=0;exitDy=0;" edge="1" parent="1" source="8nnuFxif18P1OOKrdfIk-39" target="8nnuFxif18P1OOKrdfIk-8">
          <mxGeometry width="50" height="50" relative="1" as="geometry">
            <mxPoint x="460" y="154.75" as="sourcePoint" />
            <mxPoint x="410" y="264.75" as="targetPoint" />
          </mxGeometry>
        </mxCell>
        <mxCell id="8nnuFxif18P1OOKrdfIk-39" value="department id" style="ellipse;whiteSpace=wrap;html=1;" vertex="1" parent="1">
          <mxGeometry x="350" y="70" width="80" height="40" as="geometry" />
        </mxCell>
        <mxCell id="8nnuFxif18P1OOKrdfIk-41" value="classroom" style="rounded=0;whiteSpace=wrap;html=1;" vertex="1" parent="1">
          <mxGeometry x="460" y="360" width="100" height="40" as="geometry" />
        </mxCell>
        <mxCell id="8nnuFxif18P1OOKrdfIk-42" value="name" style="ellipse;whiteSpace=wrap;html=1;" vertex="1" parent="1">
          <mxGeometry x="510" y="470" width="70" height="40" as="geometry" />
        </mxCell>
        <mxCell id="8nnuFxif18P1OOKrdfIk-43" value="" style="endArrow=none;html=1;rounded=0;exitX=0.5;exitY=0;exitDx=0;exitDy=0;entryX=0.25;entryY=1;entryDx=0;entryDy=0;" edge="1" parent="1" source="8nnuFxif18P1OOKrdfIk-42" target="8nnuFxif18P1OOKrdfIk-41">
          <mxGeometry width="50" height="50" relative="1" as="geometry">
            <mxPoint x="530" y="500" as="sourcePoint" />
            <mxPoint x="560" y="470" as="targetPoint" />
          </mxGeometry>
        </mxCell>
        <mxCell id="8nnuFxif18P1OOKrdfIk-44" value="&lt;u&gt;number&lt;/u&gt;" style="ellipse;whiteSpace=wrap;html=1;" vertex="1" parent="1">
          <mxGeometry x="630" y="470" width="70" height="40" as="geometry" />
        </mxCell>
        <mxCell id="8nnuFxif18P1OOKrdfIk-45" value="" style="endArrow=none;html=1;rounded=0;entryX=0.69;entryY=1.1;entryDx=0;entryDy=0;exitX=0.5;exitY=0;exitDx=0;exitDy=0;entryPerimeter=0;" edge="1" parent="1" source="8nnuFxif18P1OOKrdfIk-44" target="8nnuFxif18P1OOKrdfIk-41">
          <mxGeometry width="50" height="50" relative="1" as="geometry">
            <mxPoint x="477" y="530" as="sourcePoint" />
            <mxPoint x="500" y="490" as="targetPoint" />
          </mxGeometry>
        </mxCell>
        <mxCell id="8nnuFxif18P1OOKrdfIk-46" value="" style="endArrow=none;html=1;rounded=0;entryX=0;entryY=0.5;entryDx=0;entryDy=0;exitX=1;exitY=1;exitDx=0;exitDy=0;" edge="1" parent="1" source="8nnuFxif18P1OOKrdfIk-8" target="8nnuFxif18P1OOKrdfIk-41">
          <mxGeometry width="50" height="50" relative="1" as="geometry">
            <mxPoint x="340" y="460" as="sourcePoint" />
            <mxPoint x="390" y="410" as="targetPoint" />
          </mxGeometry>
        </mxCell>
        <mxCell id="8nnuFxif18P1OOKrdfIk-47" value="" style="endArrow=none;html=1;rounded=0;exitX=0.5;exitY=1;exitDx=0;exitDy=0;" edge="1" parent="1" source="8nnuFxif18P1OOKrdfIk-48">
          <mxGeometry width="50" height="50" relative="1" as="geometry">
            <mxPoint x="545" y="174.75" as="sourcePoint" />
            <mxPoint x="350" y="270" as="targetPoint" />
          </mxGeometry>
        </mxCell>
        <mxCell id="8nnuFxif18P1OOKrdfIk-48" value="classroom number" style="ellipse;whiteSpace=wrap;html=1;" vertex="1" parent="1">
          <mxGeometry x="435" y="90" width="80" height="40" as="geometry" />
        </mxCell>
      </root>
    </mxGraphModel>
  </diagram>
</mxfile>
